<?xml version="1.0" standalone="no"?><!DOCTYPE svg PUBLIC "-//W3C//DTD SVG 1.1//EN" "http://www.w3.org/Graphics/SVG/1.1/DTD/svg11.dtd"><svg t="1725604187753" class="icon" viewBox="0 0 1024 1024" version="1.1" xmlns="http://www.w3.org/2000/svg" p-id="24148" xmlns:xlink="http://www.w3.org/1999/xlink" width="256" height="256"><path d="M567.4 584.6c-2.8-2.8-5.7-5.6-8.5-8.3-20.1-19.5-39.2-37.9-39.2-64.3 0-30.9 20.8-46 44.1-59.9 33.3-24.7 78.4-58.5 80.1-162.3H380.1c1.7 103.8 46.8 137.6 80.1 162.4 23.3 13.9 44.1 29 44.1 59.9 0 25.3-24.2 49.4-47.7 72.6-2.2 2.5-4.5 5.1-6.9 7.7-30.1 33.7-67.4 75.5-69.6 141.7h263.8c-2.2-66.3-39.5-108-69.6-141.8-2.3-2.6-4.6-5.1-6.9-7.7zM535 700.7h-46c-17.1 0-29.1-11.9-29.1-28.9s12-28.9 29.1-28.9h46c17.1 0 29.1 11.9 29.1 28.9s-11.9 28.9-29.1 28.9z" p-id="24149" fill="#f6f6f7"></path><path d="M512 0C229.2 0 0 229.2 0 512s229.2 512 512 512 512-229.2 512-512S794.8 0 512 0z m207.1 792H304.9c-17.1 0-29.1-11.9-29.1-28.9s12-28.9 29.1-28.9h17c2.3-94.4 56.9-148.8 93.5-185.1 5.5-7.2 11.6-13.6 16.9-19.3 5.5-5.8 12.8-13.5 13.7-17.1-2-2.8-10.9-9.2-19.5-13.5l-0.5-0.2-0.4-0.3c-16.4-12.3-43.9-32.8-65.9-67.3-24.2-38-36.9-85.6-37.7-141.6h-17c-17.1 0-29.1-11.9-29.1-28.9s12-28.9 29.1-28.9h414c17.1 0 29.1 11.9 29.1 28.9s-12 28.9-29.1 28.9h-17c-0.9 56-13.5 103.6-37.7 141.6-22 34.6-49.5 55-65.9 67.2l-0.4 0.3-0.5 0.2c-8.7 4.3-17.5 10.7-19.5 13.5 1.1 4.5 11.8 14.3 19.1 20.9 3.8 3.4 7.7 7 11.3 10.6l0.1 0.1 0.1 0.1c2.2 2.5 4.5 5 6.9 7.6 35.8 39.5 84.5 93.3 86.7 182.1h17c17.1 0 29.1 11.9 29.1 28.9-0.1 17.2-12.1 29.1-29.2 29.1z" p-id="24150" fill="#f6f6f7"></path></svg>