<?xml version="1.0" standalone="no"?><!DOCTYPE svg PUBLIC "-//W3C//DTD SVG 1.1//EN" "http://www.w3.org/Graphics/SVG/1.1/DTD/svg11.dtd"><svg t="1725603726698" class="icon" viewBox="0 0 2594 1024" version="1.1" xmlns="http://www.w3.org/2000/svg" p-id="15538" xmlns:xlink="http://www.w3.org/1999/xlink" width="648.5" height="256"><path d="M1251.851064 206.204515h95.58506v91.761657h-95.58506zM423.036793 217.674722h57.783058v24.646905h-57.783058z" fill="#f6f6f7" p-id="15539"></path><path d="M1829.141622 0H98.306804C39.314081 0 0 39.314081 0 98.306804v367.392247c0 58.971122 39.314081 98.306804 98.306804 98.306803H196.570405v196.570405l294.920411-196.570405h1337.650806c58.971122 0 98.306804-39.314081 98.306803-98.306803V98.306804C1927.448425 39.314081 1888.112743 0 1829.141622 0zM642.245196 72.385432q34.842644 41.625403 60.742415 76.036024l-52.663588 35.685089q-30.587219-50.546676-55.644545-80.29145z m-94.310592 408.26161h-177.129376q-69.879699 0-107.271278-15.29361T210.632749 436.343097a275.241769 275.241769 0 0 1-54.002858 57.135024 608.655418 608.655418 0 0 0-17.842545-59.057526 224.090262 224.090262 0 0 0 35.749893-39.594896q-20.607491-32.401715-35.253066-80.29145l43.763916-19.117012a374.887844 374.887844 0 0 0 18.684989 47.371308 276.905057 276.905057 0 0 0 14.861587-59.683959h-63.723373v-55.234124l49.272208-70.506132H144.360441v-51.842744h123.126518v48.861786l-56.162973 76.90007h56.919013v52.685189q-9.029278 60.720814-31.904889 108.740156 38.450035 36.527534 132.328605 36.527534v-26.763817h-95.153037v-38.666047h95.153037V340.866043H287.943242v-39.076468h80.723473v-22.508392h-74.761558v-36.959556h74.761558v-24.646905h-96.859527V174.342828h96.859527v-24.625303h-74.761558V108.005717h74.761558V74.091922h54.370078V108.005717h108.005717v66.337111h25.921372v43.331894h-25.921372v61.606461h-108.005717v22.508392h108.005717v39.076468h-108.005717v22.940414h122.348876v38.666047h-122.348876v26.547805l138.916953-1.922502q-7.646805 25.078927-14.019142 53.527634z m88.780699-1.70649l-31.019242-45.362401q8.921272-11.90223 9.353295-33.136154v-127.014724h-41.19338V215.55781h98.566017v154.210563q11.90223-12.744675 39.508491-39.940514a409.471274 409.471274 0 0 0 12.312652 64.99784q-59.489549 52.685189-87.527833 84.114853zM963.410996 490.842782q-69.123659-16.352066-123.623344-50.546676-55.018112 36.527534-126.172278 53.527633A249.860426 249.860426 0 0 0 680.436017 438.157593q61.606461-13.371108 107.6817-36.721944a381.23858 381.23858 0 0 1-63.939384-76.252036l37.175568-24.214882h-45.621615v-52.70679h29.09674Q727.958533 228.97212 701.302722 203.223557q45.880829-32.272108 45.880829-87.506232V88.111064H935.32951v67.978798q0 16.352066 10.087734 18.274568t48.969792 0.842444q-8.078828 34.410621-10.627763 52.253166-39.508491 0.842445-57.783058 0.842445-47.997741 0-47.997741-45.362401V139.932207h-72.601443q-0.432023 60.483202-57.135024 108.329734H963.410996v50.136254A380.417737 380.417737 0 0 1 890.118316 399.621153q47.155296 22.29238 106.407233 31.645675A517.347385 517.347385 0 0 0 963.410996 490.842782z m446.906056-104.938355h-62.880928v-29.312752h-95.58506v136.77844h-64.565818v-136.77844h-95.585059v30.587219h-62.880929V147.579012h158.444387V72.385432h64.565818v75.19358h158.465988z m118.093451 45.14639q-11.686219 10.087734-29.528763 10.087734a41.387791 41.387791 0 0 1-28.362301-10.411751 33.373767 33.373767 0 0 1-11.794225-26.115783 32.617727 32.617727 0 0 1 12.096641-26.115782 43.396697 43.396697 0 0 1 28.880728-10.19574 41.582201 41.582201 0 0 1 28.686319 10.411751 35.166661 35.166661 0 0 1 0 52.361172z m124.249777 0q-11.686219 10.087734-29.528763 10.087734a41.387791 41.387791 0 0 1-28.362301-10.411751 33.373767 33.373767 0 0 1-11.794225-26.115783 32.617727 32.617727 0 0 1 12.096641-26.115782 43.396697 43.396697 0 0 1 28.880728-10.19574 41.582201 41.582201 0 0 1 28.686319 10.411751 35.166661 35.166661 0 0 1 0 52.361172z m124.249777 0q-11.686219 10.087734-29.528763 10.087734a41.387791 41.387791 0 0 1-28.362301-10.411751 33.373767 33.373767 0 0 1-11.794225-26.115783 32.617727 32.617727 0 0 1 12.096641-26.115782 43.396697 43.396697 0 0 1 28.880728-10.19574 41.582201 41.582201 0 0 1 28.686319 10.411751 35.166661 35.166661 0 0 1 0 52.361172z" fill="#f6f6f7" p-id="15540"></path><path d="M1091.700187 206.204515h95.585059v91.761657h-95.585059zM423.036793 149.717525h57.783058v24.646905h-57.783058zM774.357789 300.94713a280.015622 280.015622 0 0 0 64.80343 68.173209 223.226216 223.226216 0 0 0 57.567047-68.173209z" fill="#f6f6f7" p-id="15541"></path></svg>